<svg width="35" height="35" viewBox="0 0 35 35" fill="none" xmlns="http://www.w3.org/2000/svg">
<path d="M33.5416 4.37502C32.1451 5.36009 30.5988 6.11351 28.9624 6.60627C28.0841 5.59639 26.9169 4.88061 25.6185 4.55574C24.3202 4.23087 22.9533 4.31259 21.703 4.78984C20.4526 5.26709 19.3789 6.11685 18.6272 7.22419C17.8755 8.33152 17.482 9.64301 17.4999 10.9813V12.4396C14.9371 12.5061 12.3976 11.9377 10.1076 10.785C7.81767 9.63242 5.8483 7.93136 4.37492 5.83335C4.37492 5.83335 -1.45841 18.9583 11.6666 24.7917C8.66319 26.8304 5.08536 27.8526 1.45825 27.7083C14.5833 35 30.6249 27.7083 30.6249 10.9375C30.6236 10.5313 30.5845 10.1261 30.5083 9.7271C31.9966 8.25928 33.047 6.40606 33.5416 4.37502V4.37502Z" stroke="white" stroke-width="2" stroke-linecap="round" stroke-linejoin="round"/>
</svg>
