<svg width="194" height="219" viewBox="0 0 194 219" fill="none" xmlns="http://www.w3.org/2000/svg">
<ellipse cx="6.22936" cy="6.55128" rx="6.22936" ry="6.55128" fill="#2E4CFF" fill-opacity="0.3"/>
<ellipse cx="6.22936" cy="88.9103" rx="6.22936" ry="6.55128" fill="#2E4CFF" fill-opacity="0.3"/>
<ellipse cx="6.22936" cy="171.269" rx="6.22936" ry="6.55128" fill="#2E4CFF" fill-opacity="0.3"/>
<ellipse cx="6.22936" cy="47.7308" rx="6.22936" ry="6.55128" fill="#2E4CFF" fill-opacity="0.3"/>
<ellipse cx="6.22936" cy="130.09" rx="6.22936" ry="6.55128" fill="#2E4CFF" fill-opacity="0.3"/>
<ellipse cx="6.22936" cy="212.449" rx="6.22936" ry="6.55128" fill="#2E4CFF" fill-opacity="0.3"/>
<ellipse cx="36.4862" cy="6.55128" rx="6.22936" ry="6.55128" fill="#2E4CFF" fill-opacity="0.3"/>
<ellipse cx="36.4862" cy="88.9103" rx="6.22936" ry="6.55128" fill="#2E4CFF" fill-opacity="0.3"/>
<ellipse cx="36.4862" cy="171.269" rx="6.22936" ry="6.55128" fill="#2E4CFF" fill-opacity="0.3"/>
<ellipse cx="36.4862" cy="47.7308" rx="6.22936" ry="6.55128" fill="#2E4CFF" fill-opacity="0.3"/>
<ellipse cx="36.4862" cy="130.09" rx="6.22936" ry="6.55128" fill="#2E4CFF" fill-opacity="0.3"/>
<ellipse cx="36.4862" cy="212.449" rx="6.22936" ry="6.55128" fill="#2E4CFF" fill-opacity="0.3"/>
<ellipse cx="66.743" cy="6.55128" rx="6.22936" ry="6.55128" fill="#2E4CFF" fill-opacity="0.3"/>
<ellipse cx="66.743" cy="88.9103" rx="6.22936" ry="6.55128" fill="#2E4CFF" fill-opacity="0.3"/>
<ellipse cx="66.743" cy="171.269" rx="6.22936" ry="6.55128" fill="#2E4CFF" fill-opacity="0.3"/>
<ellipse cx="66.743" cy="47.7308" rx="6.22936" ry="6.55128" fill="#2E4CFF" fill-opacity="0.3"/>
<ellipse cx="66.743" cy="130.09" rx="6.22936" ry="6.55128" fill="#2E4CFF" fill-opacity="0.3"/>
<ellipse cx="66.743" cy="212.449" rx="6.22936" ry="6.55128" fill="#2E4CFF" fill-opacity="0.3"/>
<ellipse cx="96.9999" cy="6.55128" rx="6.22936" ry="6.55128" fill="#2E4CFF" fill-opacity="0.3"/>
<ellipse cx="96.9999" cy="88.9103" rx="6.22936" ry="6.55128" fill="#2E4CFF" fill-opacity="0.3"/>
<ellipse cx="96.9999" cy="171.269" rx="6.22936" ry="6.55128" fill="#2E4CFF" fill-opacity="0.3"/>
<ellipse cx="96.9999" cy="47.7308" rx="6.22936" ry="6.55128" fill="#2E4CFF" fill-opacity="0.3"/>
<ellipse cx="96.9999" cy="130.09" rx="6.22936" ry="6.55128" fill="#2E4CFF" fill-opacity="0.3"/>
<ellipse cx="96.9999" cy="212.449" rx="6.22936" ry="6.55128" fill="#2E4CFF" fill-opacity="0.3"/>
<ellipse cx="127.257" cy="6.55128" rx="6.22936" ry="6.55128" fill="#2E4CFF" fill-opacity="0.3"/>
<ellipse cx="127.257" cy="88.9103" rx="6.22936" ry="6.55128" fill="#2E4CFF" fill-opacity="0.3"/>
<ellipse cx="127.257" cy="171.269" rx="6.22936" ry="6.55128" fill="#2E4CFF" fill-opacity="0.3"/>
<ellipse cx="127.257" cy="47.7308" rx="6.22936" ry="6.55128" fill="#2E4CFF" fill-opacity="0.3"/>
<ellipse cx="127.257" cy="130.09" rx="6.22936" ry="6.55128" fill="#2E4CFF" fill-opacity="0.3"/>
<ellipse cx="127.257" cy="212.449" rx="6.22936" ry="6.55128" fill="#2E4CFF" fill-opacity="0.3"/>
<ellipse cx="157.514" cy="6.55128" rx="6.22936" ry="6.55128" fill="#2E4CFF" fill-opacity="0.3"/>
<ellipse cx="157.514" cy="88.9103" rx="6.22936" ry="6.55128" fill="#2E4CFF" fill-opacity="0.3"/>
<ellipse cx="157.514" cy="171.269" rx="6.22936" ry="6.55128" fill="#2E4CFF" fill-opacity="0.3"/>
<ellipse cx="157.514" cy="47.7308" rx="6.22936" ry="6.55128" fill="#2E4CFF" fill-opacity="0.3"/>
<ellipse cx="157.514" cy="130.09" rx="6.22936" ry="6.55128" fill="#2E4CFF" fill-opacity="0.3"/>
<ellipse cx="157.514" cy="212.449" rx="6.22936" ry="6.55128" fill="#2E4CFF" fill-opacity="0.3"/>
<ellipse cx="187.771" cy="6.55128" rx="6.22936" ry="6.55128" fill="#2E4CFF" fill-opacity="0.3"/>
<ellipse cx="187.771" cy="88.9103" rx="6.22936" ry="6.55128" fill="#2E4CFF" fill-opacity="0.3"/>
<ellipse cx="187.771" cy="171.269" rx="6.22936" ry="6.55128" fill="#2E4CFF" fill-opacity="0.3"/>
<ellipse cx="187.771" cy="47.7308" rx="6.22936" ry="6.55128" fill="#2E4CFF" fill-opacity="0.3"/>
<ellipse cx="187.771" cy="130.09" rx="6.22936" ry="6.55128" fill="#2E4CFF" fill-opacity="0.3"/>
<ellipse cx="187.771" cy="212.449" rx="6.22936" ry="6.55128" fill="#2E4CFF" fill-opacity="0.3"/>
</svg>
