<svg width="19" height="20" viewBox="0 0 19 20" fill="none" xmlns="http://www.w3.org/2000/svg">
<path d="M18.88 13.3274V18.1115C18.8803 18.2463 18.8544 18.3797 18.8037 18.5043C18.753 18.6288 18.6785 18.7419 18.5845 18.8372C18.4905 18.9325 18.3789 19.008 18.256 19.0594C18.1332 19.1108 18.0015 19.1371 17.8686 19.1367H13.1486C12.2471 19.1367 11.7962 18.0304 12.4321 17.3854L13.9577 15.839L9.44 11.2599L4.92102 15.8433L6.44786 17.3854C7.0838 18.0304 6.63287 19.1367 5.73143 19.1367H1.01143C0.878515 19.1371 0.746843 19.1108 0.62398 19.0594C0.501118 19.008 0.389486 18.9325 0.2955 18.8372C0.201514 18.7419 0.127025 18.6288 0.0763142 18.5043C0.0256033 18.3797 -0.000330366 18.2463 3.17689e-06 18.1115V13.3274C3.17689e-06 12.4132 1.09108 11.9562 1.72786 12.6012L3.25301 14.1475L7.77367 9.56836L3.25259 4.98495L1.72786 6.53553C1.0915 7.18054 3.17689e-06 6.72348 3.17689e-06 5.80936V1.02518C-0.000330366 0.890461 0.0256033 0.756998 0.0763142 0.632465C0.127025 0.507931 0.201514 0.394782 0.2955 0.299518C0.389486 0.204254 0.501118 0.128752 0.62398 0.0773519C0.746843 0.0259515 0.878515 -0.000334858 1.01143 3.22009e-06H5.73143C6.63287 3.22009e-06 7.0838 1.10634 6.44786 1.75135L4.92229 3.29767L9.44 7.87681L13.959 3.2934L12.4321 1.75135C11.7962 1.10634 12.2471 3.22009e-06 13.1486 3.22009e-06H17.8686C18.0015 -0.000334858 18.1332 0.0259515 18.256 0.0773519C18.3789 0.128752 18.4905 0.204254 18.5845 0.299518C18.6785 0.394782 18.753 0.507931 18.8037 0.632465C18.8544 0.756998 18.8803 0.890461 18.88 1.02518V5.80936C18.88 6.72348 17.7889 7.18054 17.1521 6.53553L15.627 4.98922L11.1063 9.56836L15.6274 14.1518L17.1521 12.6055C17.7885 11.9562 18.88 12.4132 18.88 13.3274Z" fill="white"/>
</svg>
