<svg width="32" height="32" viewBox="0 0 32 32" fill="none" xmlns="http://www.w3.org/2000/svg">
<path d="M23.5 1H8.5C4.35786 1 1 4.35786 1 8.5V23.5C1 27.6421 4.35786 31 8.5 31H23.5C27.6421 31 31 27.6421 31 23.5V8.5C31 4.35786 27.6421 1 23.5 1Z" stroke="white" stroke-width="2" stroke-linecap="round" stroke-linejoin="round"/>
<path d="M22 15.0555C22.1852 16.3038 21.9719 17.5788 21.3907 18.699C20.8094 19.8192 19.8898 20.7276 18.7625 21.295C17.6352 21.8624 16.3577 22.0598 15.1117 21.8594C13.8657 21.6589 12.7147 21.0706 11.8223 20.1782C10.9299 19.2858 10.3416 18.1348 10.1412 16.8888C9.94065 15.6428 10.1381 14.3653 10.7055 13.238C11.2729 12.1107 12.1813 11.1911 13.3015 10.6098C14.4217 10.0286 15.6967 9.81533 16.945 10.0005C18.2184 10.1893 19.3973 10.7826 20.3076 11.6929C21.2179 12.6032 21.8112 13.7821 22 15.0555Z" stroke="white" stroke-width="2" stroke-linecap="round" stroke-linejoin="round"/>
<path d="M24.25 7.75H24.265" stroke="white" stroke-width="2" stroke-linecap="round" stroke-linejoin="round"/>
</svg>
