<svg width="35" height="35" viewBox="0 0 35 35" fill="none" xmlns="http://www.w3.org/2000/svg">
<path d="M32.8709 9.36266C32.6976 8.67055 32.3448 8.03641 31.8481 7.5243C31.3513 7.01218 30.7282 6.64022 30.0417 6.446C27.5334 5.8335 17.5 5.8335 17.5 5.8335C17.5 5.8335 7.46669 5.8335 4.95835 6.50433C4.27184 6.69856 3.64874 7.07051 3.15198 7.58263C2.65523 8.09475 2.30242 8.72889 2.12919 9.421C1.67012 11.9666 1.44557 14.5489 1.45835 17.1356C1.44199 19.7417 1.66656 22.3437 2.12919 24.9085C2.32017 25.5791 2.68088 26.1891 3.17648 26.6796C3.67208 27.1701 4.2858 27.5245 4.95835 27.7085C7.46669 28.3793 17.5 28.3793 17.5 28.3793C17.5 28.3793 27.5334 28.3793 30.0417 27.7085C30.7282 27.5143 31.3513 27.1423 31.8481 26.6302C32.3448 26.1181 32.6976 25.4839 32.8709 24.7918C33.3264 22.2654 33.5509 19.7027 33.5417 17.1356C33.5581 14.5295 33.3335 11.9274 32.8709 9.36266V9.36266Z" stroke="white" stroke-width="2" stroke-linecap="round" stroke-linejoin="round"/>
<path d="M14.2188 21.9042L22.6042 17.1355L14.2188 12.3667V21.9042Z" stroke="white" stroke-width="2" stroke-linecap="round" stroke-linejoin="round"/>
</svg>
